<svg id="Laag_1" data-name="Laag 1" xmlns="http://www.w3.org/2000/svg" viewBox="0 0 320.67 215.33"><title>asteroid</title><polygon points="26.33 189 99 213 180.33 198 245.33 211 289.33 189 317.33 141 292.33 88 246.33 56 148.33 40 108.33 3 56.33 27 5.33 75 31.33 128 3.33 160 26.33 189" style="fill:#7e7f83"/><polygon points="3.33 160 37.83 183 100.33 196 171.33 184 239.33 196 289.33 189 299.33 142 284.33 102 246.33 56 151.33 40 108.33 3 56.33 27 23.33 77 49.33 125 3.33 160" style="fill:#a4a5a9"/><polygon points="23.33 155 100.33 196 172.33 169 239.33 196 281.33 176 299.33 142 266.33 105 246.33 56 160.33 57 108.33 3 63.33 35 23.33 77 49.33 125 23.33 155" style="fill:#c1c2c6"/><polygon points="81.33 47.63 105.33 37 122.33 56.63 113.33 77 88.83 67 81.33 47.63" style="fill:#a4a5a9"/><polygon points="101.83 47.63 113.33 57 107.58 67 94.33 60.5 88.83 49.37 101.83 47.63" style="fill:#c1c2c6"/><polygon points="198.33 77 241.33 72 253.83 94.5 240.83 128.5 207.33 117.5 198.33 77" style="fill:#a4a5a9"/><polygon points="206.83 83.5 235.83 81.13 245.33 92.5 232.83 113 214.33 110.5 206.83 83.5" style="fill:#c1c2c6"/><polygon points="100.08 147.25 120.58 154.5 145.08 145.25 147.83 126.75 134.75 111 99.08 109 88.58 131.75 100.08 147.25" style="fill:#a4a5a9"/><polygon points="109.33 115.5 131.08 119.5 138.58 135.5 121.08 142 102.83 136.5 100.08 124 109.33 115.5" style="fill:#c1c2c6"/></svg>