<svg id="Laag_2" data-name="Laag 2" xmlns="http://www.w3.org/2000/svg" xmlns:xlink="http://www.w3.org/1999/xlink" viewBox="0 0 300 300"><defs><clipPath id="clip-path"><circle cx="150" cy="150" r="125.5" style="fill:none"/></clipPath></defs><title>earth</title><circle cx="150" cy="150" r="125.5" style="fill:#3187dd"/><g style="clip-path:url(#clip-path)"><polygon points="106 269 109 266 114 266 119 260 121 260 122 264 130 269 138 269 141 268 151 269 157 267 165 270 173 268 180 268 183 267 190 270 176 305 100 285 106 269" style="fill:#fff"/><polygon points="276 163 272 170 270 179 266 191 262 198 252 208 250 217 244 227 234 230 228 229 228 225 230 222 229 218 227 214 232 205 232 199 235 197 235 187 235 184 237 178 238 168 237 162 235 157 236 152 230 148 222 143 213 145 203 145 191 137 195 120 193 110 197 101 203 97 207 89 226 87 235 90 240 94 249 93 253 94 254 90 250 85 244 85 241 82 239 84 235 79 230 82 227 81 227 75 222 75 219 77 216 75 210 82 201 82 196 77 198 71 203 72 207 73 209 68 213 65 213 60 211 58 211 52 208 54 202 48 200 49 194 40 193 36 212 38 261 17 306 151 276 163" style="fill:#fff"/><polygon points="145 24 151 28 157 26 160 28 165 28 165 32 162 36 157 36 154 39 149 44 143 43 141 37 144 32 142 29 145 24" style="fill:#fff"/><polygon points="133 24 133 32 130 38 125 38 123 34 119 34 116 36 110 35 100 44 100 50 104 53 113 46 120 40 127 43 127 49 130 53 127 60 119 59 117 66 104 66 94 72 81 84 81 92 75 96 69 85 56 85 50 95 54 105 58 106 58 111 56 115 61 120 67 133 71 133 78 126 94 130 107 137 115 142 122 154 128 154 133 161 142 162 146 165 150 177 146 184 139 190 135 198 130 203 118 208 114 215 106 227 105 234 102 243 105 247 101 250 91 244 87 235 83 227 82 217 80 209 81 194 76 186 76 183 70 181 63 170 65 166 62 161 63 147 65 144 65 137 60 136 59 131 49 113 44 111 39 104 40 91 43 85 41 73 128 5 133 24" style="fill:#fff"/></g></svg>